<svg xmlns="http://www.w3.org/2000/svg" xmlns:xlink="http://www.w3.org/1999/xlink" width="195.575" height="160.835" viewBox="0 0 195.575 160.835"><defs><clipPath id="a"><rect width="195.575" height="160.835" fill="none"/></clipPath></defs><g clip-path="url(#a)"><path d="M101.549,105.557h57.683a1.255,1.255,0,0,0,1.254-1.257V96.76a1.257,1.257,0,0,0-1.254-1.257H111.581a1.255,1.255,0,0,1-1.254-1.255V66.6a1.255,1.255,0,0,1,1.254-1.255h47.651a1.255,1.255,0,0,0,1.254-1.257v-7.54a1.254,1.254,0,0,0-1.254-1.255H101.549a1.254,1.254,0,0,0-1.254,1.255V104.3a1.255,1.255,0,0,0,1.254,1.257"/><path d="M36.343,105.557h7.524a1.255,1.255,0,0,0,1.254-1.257V66.6a1.255,1.255,0,0,1,1.254-1.255h12.54A1.255,1.255,0,0,1,60.169,66.6v7.54A1.255,1.255,0,0,1,58.915,75.4H51.391a1.256,1.256,0,0,0-1.254,1.259V104.3a1.255,1.255,0,0,0,1.254,1.257H78.978a1.255,1.255,0,0,0,1.254-1.257V96.76A1.257,1.257,0,0,0,78.978,95.5H61.423a1.255,1.255,0,0,1-1.254-1.255v-7.54a1.257,1.257,0,0,1,1.254-1.259H78.978A1.253,1.253,0,0,0,80.232,84.2v-7.54A1.256,1.256,0,0,0,78.978,75.4H71.455A1.254,1.254,0,0,1,70.2,74.139V66.6a1.255,1.255,0,0,1,1.254-1.255H83.994A1.255,1.255,0,0,1,85.248,66.6v37.7a1.255,1.255,0,0,0,1.254,1.257h7.524a1.255,1.255,0,0,0,1.254-1.257V56.547a1.253,1.253,0,0,0-1.254-1.255H36.343a1.254,1.254,0,0,0-1.255,1.255V104.3a1.256,1.256,0,0,0,1.255,1.257"/><path d="M101.549,50.265h7.524a1.256,1.256,0,0,0,1.255-1.257V11.31a1.255,1.255,0,0,1,1.254-1.255h12.54a1.255,1.255,0,0,1,1.254,1.255v37.7a1.256,1.256,0,0,0,1.254,1.257h7.524a1.256,1.256,0,0,0,1.255-1.257V11.31a1.254,1.254,0,0,1,1.254-1.255H149.2a1.255,1.255,0,0,1,1.254,1.255v37.7a1.256,1.256,0,0,0,1.254,1.257h7.524a1.255,1.255,0,0,0,1.254-1.257V1.257A1.255,1.255,0,0,0,159.232,0H101.549A1.255,1.255,0,0,0,100.3,1.257v47.75a1.255,1.255,0,0,0,1.254,1.257"/><path d="M36.343,50.265H94.026a1.255,1.255,0,0,0,1.254-1.257V21.364a1.255,1.255,0,0,0-1.254-1.257H46.375a1.257,1.257,0,0,1-1.254-1.257V11.31a1.255,1.255,0,0,1,1.254-1.255H94.026A1.256,1.256,0,0,0,95.279,8.8V1.257A1.255,1.255,0,0,0,94.026,0H36.343a1.256,1.256,0,0,0-1.255,1.257V28.9a1.255,1.255,0,0,0,1.255,1.255H83.994a1.255,1.255,0,0,1,1.254,1.257v7.54a1.255,1.255,0,0,1-1.254,1.257H36.343a1.254,1.254,0,0,0-1.255,1.255v7.54a1.256,1.256,0,0,0,1.255,1.257"/><path d="M36.564,151.965c-.4.776-2.6,2.7-4.278,2.558a20.589,20.589,0,0,1,3.843-2.945c.416-.172.653-.013.434.387m-.358-.83c-1.573,0-5.4,2.129-7.683,5.622a13.918,13.918,0,0,1-3.824,2.516c-.542.168-.84-.083-.52-.608a16.974,16.974,0,0,1,2.8-2.978,13.677,13.677,0,0,0,2.8-3.176c.476-1.022-.327-1.576-1.557-1.214a21.61,21.61,0,0,0-5.087,2.69,88.128,88.128,0,0,1,6.822-6.523,14.948,14.948,0,0,1,3.968-2.741c.226-.076.159-.176-.012-.176-1.514,0-2.993.747-4.772,2.2-3.208,2.612-8.563,7.525-10.973,11.831a1.242,1.242,0,0,0-.076.964c.1.364.3.411.554.031a28.556,28.556,0,0,1,2.927-3.67,20,20,0,0,1,6.781-4.24c.536-.172.794.022.448.476-.663.858-2.662,2.386-3.707,3.415-1.083,1.084-2.008,2.308-2.008,3.171a.95.95,0,0,0,1,1.047c1.161,0,2.915-1.3,4.138-2.264-.4,1.17-.025,2.254,1.318,2.254,2.242,0,5.182-2.795,6.478-3.965.355-.319.073-.534-.27-.232-2.164,1.993-4.464,3.784-6.117,3.784-.512,0-.717-.488-.26-1.306a14.75,14.75,0,0,1,2.683-3.27,5.8,5.8,0,0,0,4.929-2.406c.316-.606.111-1.23-.776-1.23"/><path d="M29.358,141.859c3.089-.156,5.66-.743,7.131-1.992.369-.309.145-.619-.328-.309a10.059,10.059,0,0,1-5.421,1.536c-3.979,0-8.687-1.948-12.485-1.948-6.653,0-13.132,4.442-13.132,8.628,0,2.54,2.225,4.031,4.7,4.031,4.389,0,8.574-3.231,8.574-6.163,0-3.189-4.361-3.032-6.592-1.324-.606.458-.152.627.274.329,2.251-1.583,5.854-1.572,5.854,1.022,0,2.9-4.325,5.689-8.083,5.689-2.657,0-4.111-1.782-4.111-3.564,0-3.482,5.371-7.594,10.6-7.594,3.787,0,6.5,1.557,11.713,1.651-2.815.9-6.706,3.159-10.538,9.124-4.015,6.23-7.616,9.289-12.206,9.289a5.458,5.458,0,0,1-4.9-3.1c-.292-.6-.549-.4-.335.159a5.809,5.809,0,0,0,5.342,3.51c5.389,0,10.364-4.481,13.636-9.371,4.387-6.543,7.5-9.037,10.3-9.605"/><path d="M161.284,151.965c1.3-3.415,2.708-7.058,2.913-7.563.151-.376.113-.36.262.017.1.242,1.574,4.028,2.95,7.547Zm13.433,6.742c-1.026,0-1.577.04-1.828-.561-1.606-3.763-6.617-16.418-7.517-18.656-.153-.382-.4-.36-.521-.036-.41,1.092-6.46,16.961-7.2,18.605-.294.637-.591.647-.969.647h-.945c-.547,0-.774.291-.774.675h6.526a.675.675,0,0,0-.77-.675h-.985c-.954,0-.845-.275-.764-.553.1-.344.951-2.594,1.936-5.181h6.9c.993,2.551,1.858,4.754,1.97,5.042.245.615.254.693-1.415.693-.549,0-.776.3-.776.675h7.907c0-.351-.227-.675-.774-.675"/><path d="M153.861,154.252l0,.006c-.106,1.143-.184,4.45-3.76,4.45h-3.872c-.893,0-1.041-.2-1.041-.647V141.345c0-.724.593-.648,2.348-.648.546,0,.775-.291.775-.678h-9.214c0,.387.227.678.774.678,1.753,0,2.354-.076,2.354.648v16.7c0,.548-.353.659-.92.659h-1.434c-.543,0-.774.291-.774.678l14.882-.007c.3,0,.553-.143.553-.436V153.6a.646.646,0,0,0-.668.651"/><path d="M136.761,154.252l0,.006c-.107,1.143-.187,4.45-3.761,4.45h-3.871c-.894,0-1.043-.2-1.043-.647V141.345c0-.724.6-.648,2.353-.648.543,0,.773-.291.773-.678h-9.216c0,.387.231.678.774.678,1.757,0,2.351-.076,2.351.648v16.7c0,.548-.351.659-.914.659h-1.435c-.545,0-.774.291-.774.678l14.882-.007c.3,0,.551-.143.551-.436V153.6a.646.646,0,0,0-.667.651"/><path d="M187.907,139.987c0,.364.227.678.772.678,1.978,0,2.352-.09,2.352.647v11.849c0,.362-.1.371-.3.1-1.99-2.739-8.461-11.2-9.269-12.335-.336-.466-.658-.939-1.183-.939H175.6c0,.385.23.678.771.678h1.7c.393,0,.63.349.648,1.1v16.286c0,.736-.366.651-2.348.651-.543,0-.771.289-.771.677h7.667c0-.365-.23-.677-.772-.677-1.981,0-2.353.085-2.353-.651,0-.073,0-13.562,0-13.744,0-.311.052-.32.287,0,1.971,2.681,9.088,12.19,10.907,14.663.471.629,1.115.483,1.115-.074V141.313c0-.738.37-.647,2.35-.647.547,0,.772-.293.772-.678Z"/><path d="M100.5,153.114c-.675,3.361-2.656,5.351-5.9,5.351-2.982,0-6.292-2.76-6.292-8.692,0-6.892,3.449-9,6.36-9a6.012,6.012,0,0,1,5.617,5.53c0,.545.316.774.678.774v-7.223c-.362,0-.678.228-.678.776v1.351a8.512,8.512,0,0,0-6.051-2.319c-4.073,0-9.12,3.388-9.12,10.3,0,6.245,4.565,9.836,9.135,9.836a7.062,7.062,0,0,0,6.966-6.529c.063-.539-.6-.753-.718-.154"/><path d="M107.634,151.965c1.3-3.415,2.706-7.058,2.911-7.563.151-.376.117-.36.262.017.1.242,1.574,4.028,2.951,7.547Zm13.431,6.742c-1.024,0-1.576.04-1.829-.561-1.6-3.763-6.616-16.418-7.516-18.656-.153-.382-.4-.36-.519-.036-.41,1.092-6.457,16.961-7.206,18.605-.289.637-.59.647-.968.647h-.947c-.547,0-.774.291-.774.675h6.527c0-.351-.227-.675-.772-.675h-.982c-.952,0-.844-.275-.76-.553.1-.344.944-2.594,1.931-5.181h6.9c1,2.551,1.859,4.754,1.972,5.042.247.615.254.693-1.415.693-.548,0-.777.3-.777.675h7.91c0-.351-.23-.675-.776-.675"/><path d="M71.376,151.965c1.3-3.415,2.707-7.058,2.909-7.563.152-.376.116-.36.265.017.092.242,1.573,4.028,2.946,7.547Zm13.432,6.742c-1.025,0-1.576.04-1.831-.561-1.6-3.763-6.613-16.418-7.513-18.656-.154-.382-.4-.36-.524-.036-.41,1.092-6.455,16.961-7.206,18.605-.291.637-.586.647-.963.647h-.949c-.549,0-.776.291-.776.675h6.532a.676.676,0,0,0-.773-.675h-.982c-.953,0-.846-.275-.765-.553.1-.344.946-2.594,1.934-5.181h6.9c1,2.551,1.86,4.754,1.973,5.042.246.615.253.693-1.418.693-.543,0-.774.3-.774.675H85.58c0-.351-.226-.675-.773-.675"/><path d="M62.53,140.665h1.637c.547,0,.773-.293.773-.678H59.452a1.07,1.07,0,0,0-1.141.7c-.36.863-5.238,13.124-5.436,13.531s-.335.049-.453-.237-4.611-11.469-5.229-13.054c-.165-.428-.333-.939-1.078-.939h-5.5c0,.385.229.678.776.678h1.3c.607,0,1.049.076,1.049.647v16.742c0,.736-.37.651-2.348.651-.549,0-.776.289-.776.677H48.28c0-.365-.228-.677-.772-.677-1.978,0-2.348.085-2.348-.651,0-.271,0-13.927,0-14.11,0-.309.132-.364.293,0,1.172,2.681,6.06,14.526,6.211,14.842.165.364.35.373.5.014.27-.615,6.333-15.226,6.428-15.407.136-.293.261-.149.261.072v14.587c0,.725-.6.651-2.355.651-.543,0-.771.289-.771.677H64.94c0-.387-.23-.677-.773-.677-1.757,0-2.353.074-2.353-.651v-16.7c0-.407-.012-.691.716-.689"/></g></svg>